<svg width="29" height="29" viewBox="0 0 29 29" fill="none" xmlns="http://www.w3.org/2000/svg">
<g id="apartment">
<path id="Vector" d="M12.2344 6.79688H14.0469C14.1671 6.79688 14.2823 6.74914 14.3673 6.66416C14.4523 6.57918 14.5 6.46393 14.5 6.34375V3.625C14.5 3.50482 14.4523 3.38957 14.3673 3.30459C14.2823 3.21961 14.1671 3.17188 14.0469 3.17188H12.2344C12.1142 3.17188 11.9989 3.21961 11.914 3.30459C11.829 3.38957 11.7812 3.50482 11.7812 3.625V6.34375C11.7812 6.46393 11.829 6.57918 11.914 6.66416C11.9989 6.74914 12.1142 6.79688 12.2344 6.79688ZM12.6875 4.07812H13.5938V5.89062H12.6875V4.07812Z" fill="#F1F5F9"/>
<path id="Vector_2" d="M15.8594 6.79688H17.6719C17.7921 6.79688 17.9073 6.74914 17.9923 6.66416C18.0773 6.57918 18.125 6.46393 18.125 6.34375V3.625C18.125 3.50482 18.0773 3.38957 17.9923 3.30459C17.9073 3.21961 17.7921 3.17188 17.6719 3.17188H15.8594C15.7392 3.17188 15.6239 3.21961 15.539 3.30459C15.454 3.38957 15.4062 3.50482 15.4062 3.625V6.34375C15.4062 6.46393 15.454 6.57918 15.539 6.66416C15.6239 6.74914 15.7392 6.79688 15.8594 6.79688ZM16.3125 4.07812H17.2188V5.89062H16.3125V4.07812Z" fill="#F1F5F9"/>
<path id="Vector_3" d="M19.4844 6.79688H21.2969C21.4171 6.79688 21.5323 6.74914 21.6173 6.66416C21.7023 6.57918 21.75 6.46393 21.75 6.34375V3.625C21.75 3.50482 21.7023 3.38957 21.6173 3.30459C21.5323 3.21961 21.4171 3.17188 21.2969 3.17188H19.4844C19.3642 3.17188 19.2489 3.21961 19.164 3.30459C19.079 3.38957 19.0312 3.50482 19.0312 3.625V6.34375C19.0312 6.46393 19.079 6.57918 19.164 6.66416C19.2489 6.74914 19.3642 6.79688 19.4844 6.79688ZM19.9375 4.07812H20.8438V5.89062H19.9375V4.07812Z" fill="#F1F5F9"/>
<path id="Vector_4" d="M12.2344 11.3281H14.0469C14.1671 11.3281 14.2823 11.2804 14.3673 11.1954C14.4523 11.1104 14.5 10.9952 14.5 10.875V8.15625C14.5 8.03607 14.4523 7.92082 14.3673 7.83584C14.2823 7.75086 14.1671 7.70312 14.0469 7.70312H12.2344C12.1142 7.70312 11.9989 7.75086 11.914 7.83584C11.829 7.92082 11.7812 8.03607 11.7812 8.15625V10.875C11.7812 10.9952 11.829 11.1104 11.914 11.1954C11.9989 11.2804 12.1142 11.3281 12.2344 11.3281ZM12.6875 8.60938H13.5938V10.4219H12.6875V8.60938Z" fill="#F1F5F9"/>
<path id="Vector_5" d="M15.8594 11.3281H17.6719C17.7921 11.3281 17.9073 11.2804 17.9923 11.1954C18.0773 11.1104 18.125 10.9952 18.125 10.875V8.15625C18.125 8.03607 18.0773 7.92082 17.9923 7.83584C17.9073 7.75086 17.7921 7.70312 17.6719 7.70312H15.8594C15.7392 7.70312 15.6239 7.75086 15.539 7.83584C15.454 7.92082 15.4062 8.03607 15.4062 8.15625V10.875C15.4062 10.9952 15.454 11.1104 15.539 11.1954C15.6239 11.2804 15.7392 11.3281 15.8594 11.3281ZM16.3125 8.60938H17.2188V10.4219H16.3125V8.60938Z" fill="#F1F5F9"/>
<path id="Vector_6" d="M19.4844 11.3281H21.2969C21.4171 11.3281 21.5323 11.2804 21.6173 11.1954C21.7023 11.1104 21.75 10.9952 21.75 10.875V8.15625C21.75 8.03607 21.7023 7.92082 21.6173 7.83584C21.5323 7.75086 21.4171 7.70312 21.2969 7.70312H19.4844C19.3642 7.70312 19.2489 7.75086 19.164 7.83584C19.079 7.92082 19.0312 8.03607 19.0312 8.15625V10.875C19.0312 10.9952 19.079 11.1104 19.164 11.1954C19.2489 11.2804 19.3642 11.3281 19.4844 11.3281ZM19.9375 8.60938H20.8438V10.4219H19.9375V8.60938Z" fill="#F1F5F9"/>
<path id="Vector_7" d="M8.60938 6.79688H10.4219C10.5421 6.79688 10.6573 6.74914 10.7423 6.66416C10.8273 6.57918 10.875 6.46393 10.875 6.34375V3.625C10.875 3.50482 10.8273 3.38957 10.7423 3.30459C10.6573 3.21961 10.5421 3.17188 10.4219 3.17188H8.60938C8.4892 3.17188 8.37394 3.21961 8.28897 3.30459C8.20399 3.38957 8.15625 3.50482 8.15625 3.625V6.34375C8.15625 6.46393 8.20399 6.57918 8.28897 6.66416C8.37394 6.74914 8.4892 6.79688 8.60938 6.79688ZM9.0625 4.07812H9.96875V5.89062H9.0625V4.07812Z" fill="#F1F5F9"/>
<path id="Vector_8" d="M8.60938 11.3281H10.4219C10.5421 11.3281 10.6573 11.2804 10.7423 11.1954C10.8273 11.1104 10.875 10.9952 10.875 10.875V8.15625C10.875 8.03607 10.8273 7.92082 10.7423 7.83584C10.6573 7.75086 10.5421 7.70312 10.4219 7.70312H8.60938C8.4892 7.70312 8.37394 7.75086 8.28897 7.83584C8.20399 7.92082 8.15625 8.03607 8.15625 8.15625V10.875C8.15625 10.9952 8.20399 11.1104 8.28897 11.1954C8.37394 11.2804 8.4892 11.3281 8.60938 11.3281ZM9.0625 8.60938H9.96875V10.4219H9.0625V8.60938Z" fill="#F1F5F9"/>
<path id="Vector_9" d="M12.2344 15.8594H14.0469C14.1671 15.8594 14.2823 15.8116 14.3673 15.7267C14.4523 15.6417 14.5 15.5264 14.5 15.4062V12.6875C14.5 12.5673 14.4523 12.4521 14.3673 12.3671C14.2823 12.2821 14.1671 12.2344 14.0469 12.2344H12.2344C12.1142 12.2344 11.9989 12.2821 11.914 12.3671C11.829 12.4521 11.7812 12.5673 11.7812 12.6875V15.4062C11.7812 15.5264 11.829 15.6417 11.914 15.7267C11.9989 15.8116 12.1142 15.8594 12.2344 15.8594ZM12.6875 13.1406H13.5938V14.9531H12.6875V13.1406Z" fill="#F1F5F9"/>
<path id="Vector_10" d="M8.60938 15.8594H10.4219C10.5421 15.8594 10.6573 15.8116 10.7423 15.7267C10.8273 15.6417 10.875 15.5264 10.875 15.4062V12.6875C10.875 12.5673 10.8273 12.4521 10.7423 12.3671C10.6573 12.2821 10.5421 12.2344 10.4219 12.2344H8.60938C8.4892 12.2344 8.37394 12.2821 8.28897 12.3671C8.20399 12.4521 8.15625 12.5673 8.15625 12.6875V15.4062C8.15625 15.5264 8.20399 15.6417 8.28897 15.7267C8.37394 15.8116 8.4892 15.8594 8.60938 15.8594ZM9.0625 13.1406H9.96875V14.9531H9.0625V13.1406Z" fill="#F1F5F9"/>
<path id="Vector_11" d="M15.8594 15.8594H17.6719C17.7921 15.8594 17.9073 15.8116 17.9923 15.7267C18.0773 15.6417 18.125 15.5264 18.125 15.4062V12.6875C18.125 12.5673 18.0773 12.4521 17.9923 12.3671C17.9073 12.2821 17.7921 12.2344 17.6719 12.2344H15.8594C15.7392 12.2344 15.6239 12.2821 15.539 12.3671C15.454 12.4521 15.4062 12.5673 15.4062 12.6875V15.4062C15.4062 15.5264 15.454 15.6417 15.539 15.7267C15.6239 15.8116 15.7392 15.8594 15.8594 15.8594ZM16.3125 13.1406H17.2188V14.9531H16.3125V13.1406Z" fill="#F1F5F9"/>
<path id="Vector_12" d="M19.4844 15.8594H21.2969C21.4171 15.8594 21.5323 15.8116 21.6173 15.7267C21.7023 15.6417 21.75 15.5264 21.75 15.4062V12.6875C21.75 12.5673 21.7023 12.4521 21.6173 12.3671C21.5323 12.2821 21.4171 12.2344 21.2969 12.2344H19.4844C19.3642 12.2344 19.2489 12.2821 19.164 12.3671C19.079 12.4521 19.0312 12.5673 19.0312 12.6875V15.4062C19.0312 15.5264 19.079 15.6417 19.164 15.7267C19.2489 15.8116 19.3642 15.8594 19.4844 15.8594ZM19.9375 13.1406H20.8438V14.9531H19.9375V13.1406Z" fill="#F1F5F9"/>
<path id="Vector_13" d="M12.2344 20.3906H14.0469C14.1671 20.3906 14.2823 20.3429 14.3673 20.2579C14.4523 20.1729 14.5 20.0577 14.5 19.9375V17.2188C14.5 17.0986 14.4523 16.9833 14.3673 16.8983C14.2823 16.8134 14.1671 16.7656 14.0469 16.7656H12.2344C12.1142 16.7656 11.9989 16.8134 11.914 16.8983C11.829 16.9833 11.7812 17.0986 11.7812 17.2188V19.9375C11.7812 20.0577 11.829 20.1729 11.914 20.2579C11.9989 20.3429 12.1142 20.3906 12.2344 20.3906ZM12.6875 17.6719H13.5938V19.4844H12.6875V17.6719Z" fill="#F1F5F9"/>
<path id="Vector_14" d="M8.60938 20.3906H10.4219C10.5421 20.3906 10.6573 20.3429 10.7423 20.2579C10.8273 20.1729 10.875 20.0577 10.875 19.9375V17.2188C10.875 17.0986 10.8273 16.9833 10.7423 16.8983C10.6573 16.8134 10.5421 16.7656 10.4219 16.7656H8.60938C8.4892 16.7656 8.37394 16.8134 8.28897 16.8983C8.20399 16.9833 8.15625 17.0986 8.15625 17.2188V19.9375C8.15625 20.0577 8.20399 20.1729 8.28897 20.2579C8.37394 20.3429 8.4892 20.3906 8.60938 20.3906ZM9.0625 17.6719H9.96875V19.4844H9.0625V17.6719Z" fill="#F1F5F9"/>
<path id="Vector_15" d="M15.8594 20.3906H17.6719C17.7921 20.3906 17.9073 20.3429 17.9923 20.2579C18.0773 20.1729 18.125 20.0577 18.125 19.9375V17.2188C18.125 17.0986 18.0773 16.9833 17.9923 16.8983C17.9073 16.8134 17.7921 16.7656 17.6719 16.7656H15.8594C15.7392 16.7656 15.6239 16.8134 15.539 16.8983C15.454 16.9833 15.4062 17.0986 15.4062 17.2188V19.9375C15.4062 20.0577 15.454 20.1729 15.539 20.2579C15.6239 20.3429 15.7392 20.3906 15.8594 20.3906ZM16.3125 17.6719H17.2188V19.4844H16.3125V17.6719Z" fill="#F1F5F9"/>
<path id="Vector_16" d="M19.4844 20.3906H21.2969C21.4171 20.3906 21.5323 20.3429 21.6173 20.2579C21.7023 20.1729 21.75 20.0577 21.75 19.9375V17.2188C21.75 17.0986 21.7023 16.9833 21.6173 16.8983C21.5323 16.8134 21.4171 16.7656 21.2969 16.7656H19.4844C19.3642 16.7656 19.2489 16.8134 19.164 16.8983C19.079 16.9833 19.0312 17.0986 19.0312 17.2188V19.9375C19.0312 20.0577 19.079 20.1729 19.164 20.2579C19.2489 20.3429 19.3642 20.3906 19.4844 20.3906ZM19.9375 17.6719H20.8438V19.4844H19.9375V17.6719Z" fill="#F1F5F9"/>
<path id="Vector_17" d="M27.6406 17.6719H23.5625V1.8125C23.5625 1.69232 23.5148 1.57707 23.4298 1.49209C23.3448 1.40711 23.2296 1.35938 23.1094 1.35938H6.79688C6.6767 1.35938 6.56144 1.40711 6.47647 1.49209C6.39149 1.57707 6.34375 1.69232 6.34375 1.8125V18.0724C5.96275 17.8274 5.52273 17.6895 5.07 17.6734C4.61727 17.6573 4.16856 17.7635 3.77108 17.9808C3.37361 18.1982 3.04207 18.5186 2.81135 18.9085C2.58063 19.2984 2.45926 19.7432 2.46002 20.1962C2.46049 20.4479 2.49946 20.6981 2.57556 20.938C2.01667 21.1383 1.5465 21.5296 1.24802 22.0428C0.949535 22.5561 0.84193 23.1582 0.94419 23.7431C1.04645 24.3279 1.352 24.8578 1.80692 25.2393C2.26185 25.6208 2.8369 25.8293 3.43061 25.8281C3.81307 25.8258 4.18979 25.7349 4.53125 25.5626V27.1875C4.53125 27.3077 4.57899 27.4229 4.66397 27.5079C4.74894 27.5929 4.8642 27.6406 4.98438 27.6406C5.10455 27.6406 5.21981 27.5929 5.30478 27.5079C5.38976 27.4229 5.4375 27.3077 5.4375 27.1875V25.5626C5.72095 25.7025 6.02857 25.787 6.34375 25.8114V27.1875C6.34375 27.3077 6.39149 27.4229 6.47647 27.5079C6.56144 27.5929 6.6767 27.6406 6.79688 27.6406H26.7344C26.8546 27.6406 26.9698 27.5929 27.0548 27.5079C27.1398 27.4229 27.1875 27.3077 27.1875 27.1875V20.3906H27.6406C27.7608 20.3906 27.8761 20.3429 27.961 20.2579C28.046 20.1729 28.0938 20.0577 28.0938 19.9375V18.125C28.0938 18.0048 28.046 17.8896 27.961 17.8046C27.8761 17.7196 27.7608 17.6719 27.6406 17.6719ZM4.98438 23.1094C4.8642 23.1094 4.74894 23.1571 4.66397 23.2421C4.57899 23.3271 4.53125 23.4423 4.53125 23.5625V24.4688C4.23746 24.7575 3.84253 24.9201 3.43061 24.9219C3.01639 24.9235 2.61745 24.7656 2.31645 24.4811C2.01546 24.1965 1.83551 23.807 1.81389 23.3934C1.79228 22.9797 1.93066 22.5736 2.20035 22.2592C2.47005 21.9448 2.85037 21.7463 3.2625 21.7047C3.33807 21.6966 3.4104 21.6696 3.47281 21.6262C3.53522 21.5829 3.58572 21.5245 3.61966 21.4565C3.6536 21.3885 3.66988 21.313 3.66701 21.237C3.66414 21.1611 3.64222 21.0871 3.60325 21.0218C3.45085 20.7733 3.36966 20.4877 3.36853 20.1962C3.36853 19.7671 3.53901 19.3555 3.84246 19.0521C4.14592 18.7486 4.55749 18.5781 4.98664 18.5781C5.41579 18.5781 5.82736 18.7486 6.13082 19.0521C6.43427 19.3555 6.60475 19.7671 6.60475 20.1962C6.60363 20.4877 6.52243 20.7733 6.37003 21.0218C6.33106 21.0871 6.30914 21.1611 6.30627 21.237C6.3034 21.313 6.31969 21.3885 6.35362 21.4565C6.38756 21.5245 6.43806 21.5829 6.50047 21.6262C6.56289 21.6696 6.63521 21.6966 6.71078 21.7047C7.12312 21.7463 7.50363 21.945 7.77337 22.2596C8.0431 22.5743 8.18135 22.9807 8.15944 23.3945C8.13752 23.8084 7.95712 24.1979 7.65566 24.4823C7.3542 24.7667 6.95483 24.9241 6.54041 24.9219C6.1277 24.9207 5.73185 24.758 5.4375 24.4688V23.5625C5.4375 23.4423 5.38976 23.3271 5.30478 23.2421C5.21981 23.1571 5.10455 23.1094 4.98438 23.1094ZM17.2188 26.7344H12.6875V22.2031H17.2188V26.7344ZM22.6562 26.7344H18.125V21.75C18.125 21.6298 18.0773 21.5146 17.9923 21.4296C17.9073 21.3446 17.7921 21.2969 17.6719 21.2969H12.2344C12.1142 21.2969 11.9989 21.3446 11.914 21.4296C11.829 21.5146 11.7812 21.6298 11.7812 21.75V26.7344H7.25V25.7244C7.76047 25.5755 8.21068 25.2687 8.53605 24.8481C8.86142 24.4275 9.04523 23.9147 9.06113 23.3832C9.07703 22.8517 8.9242 22.3288 8.62456 21.8895C8.32491 21.4503 7.89385 21.1172 7.39319 20.938C7.46929 20.6981 7.50826 20.4479 7.50873 20.1962C7.50835 19.8126 7.41982 19.4342 7.25 19.0902V2.26562H22.6562V26.7344ZM26.2813 26.7344H23.5625V20.3906H26.2813V26.7344ZM27.1875 19.4844H23.5625V18.5781H27.1875V19.4844Z" fill="#F1F5F9"/>
</g>
</svg>
